# xmcd
#
# Track frame offsets:
#	150
#	28117
#	48699
#	70334
#	97643
#	121227
#	137852
#	161164
#	175383
#	197432
#	218292
#	230934
#	248371
#	283878
#	303200
#
# Disc length: 4333 seconds
#
# Revision: 0
# Processed by: cddbd v1.5.1PL0 Copyright (c) Steve Scherf et al.
# Submitted via: EasyCDDAExtractor 8.1.4.1
#
DISCID=d110eb0f
DTITLE=Various Artist - Best of Blues CD 2
DYEAR=2001
DGENRE=Blues
TTITLE0=Gary Moore - Still Got The Blues
TTITLE1=Jonny Lang - Breaking Me
TTITLE2=Eric Clapton - Peaches And Diesel
TTITLE3=Robert Cray - Moan
TTITLE4=Ben Harper - I Shall Not Walk Alone
TTITLE5=Charlie Musselwhite - Clarksdale Boogie
TTITLE6=Eric Clapton - Third Degree
TTITLE7=Gary Moore - I Loved Another Woman
TTITLE8=Robert Cray - Don't Break This Ring
TTITLE9=Eric Clapton - Tears In Heaven
TTITLE10=Colin James - Milk Cow Calf Blues
TTITLE11=Charlie Musselwhite - Darkest Hour
TTITLE12=The Blues Brothers - Sweet Home
TTITLE13=Joe Cocker - You Can Leave Your Hat On
TTITLE14=Santana - El Farol
EXTD=
EXTT0=
EXTT1=
EXTT2=
EXTT3=
EXTT4=
EXTT5=
EXTT6=
EXTT7=
EXTT8=
EXTT9=
EXTT10=
EXTT11=
EXTT12=
EXTT13=
EXTT14=
PLAYORDER=
